<svg viewBox="0 0 50 47" xmlns="http://www.w3.org/2000/svg">
  <path d="M30.5027 20.8057H42.8836C43.6434 20.8057 44.2593 20.2304 44.2593 19.5209V16.9515C44.2593 16.242 43.6434 15.6667 42.8836 15.6667H37.1445L49.359 4.25972C49.8963 3.75795 49.8963 2.9446 49.359 2.44284L47.4139 0.626323C46.8766 0.124559 46.0057 0.124559 45.4684 0.626323L33.254 12.0333V6.67363C33.254 5.9641 32.638 5.38887 31.8783 5.38887H29.127C28.3672 5.38887 27.7513 5.9641 27.7513 6.67363V18.2361C27.7513 19.6552 28.9832 20.8057 30.5027 20.8057Z" />
  <path d="M45.7881 30.6078C42.7547 30.6078 39.7777 30.165 36.9565 29.2943C35.5728 28.8565 33.8747 29.2579 33.031 30.0672L27.4638 33.9929C21.0073 30.7736 17.0281 27.0598 13.6265 21.0742L17.7106 16.0068C18.7719 15.0157 19.1481 13.5716 18.6913 12.2216C17.7562 9.56938 17.2806 6.7892 17.2806 3.96132C17.2807 1.91488 15.4993 0.25 13.3068 0.25H4.21187C2.01941 0.25 0.238098 1.91488 0.238098 3.96108C0.238098 27.4174 20.6716 46.5 45.7881 46.5C47.9806 46.5 49.762 44.8351 49.762 42.7888V34.3189C49.7619 32.2727 47.9806 30.6078 45.7881 30.6078Z" />
</svg>