<svg viewBox="0 0 50 47" xmlns="http://www.w3.org/2000/svg">
  <path d="M47.0106 0.250006H34.6296C33.8699 0.250006 33.2539 0.825241 33.2539 1.53477V4.10417C33.2539 4.8137 33.8699 5.38894 34.6296 5.38894H40.3687L28.1542 16.7959C27.617 17.2977 27.617 18.1111 28.1542 18.6128L30.0993 20.4293C30.6366 20.9311 31.5075 20.9311 32.0448 20.4293L44.2593 9.02233V14.382C44.2593 15.0916 44.8752 15.6668 45.635 15.6668H48.3863C49.146 15.6668 49.762 15.0916 49.762 14.382V2.81953C49.762 1.40048 48.5301 0.250006 47.0106 0.250006Z" />
  <path d="M45.7881 30.6078C42.7547 30.6078 39.7777 30.165 36.9565 29.2943C35.5728 28.8565 33.8747 29.2579 33.031 30.0672L27.4638 33.9929C21.0073 30.7736 17.0281 27.0598 13.6265 21.0742L17.7106 16.0068C18.7719 15.0157 19.1481 13.5716 18.6913 12.2216C17.7562 9.56938 17.2806 6.7892 17.2806 3.96132C17.2807 1.91488 15.4993 0.25 13.3068 0.25H4.21187C2.01941 0.25 0.238098 1.91488 0.238098 3.96108C0.238098 27.4174 20.6716 46.5 45.7881 46.5C47.9806 46.5 49.762 44.8351 49.762 42.7888V34.3189C49.7619 32.2727 47.9806 30.6078 45.7881 30.6078Z" />
</svg>